<svg width="800" height="400" viewBox="0 0 800 400" xmlns="http://www.w3.org/2000/svg"><mask id="satori_om-id"><rect x="0" y="0" width="800" height="400" fill="#fff"/></mask><rect x="0" y="0" width="800" height="400" fill="#fff"/><clipPath id="satori_cp-id-0"><rect x="300" y="81" width="200" height="200"/></clipPath><mask id="satori_om-id-0"><rect x="300" y="81" width="200" height="200" fill="#fff"/></mask><image x="300" y="81" width="200" height="200" href="data:image/svg+xml;utf8,%3Csvg  id=%22Layer_1%22 data-name=%22Layer 1%22 xmlns=%22http://www.w3.org/2000/svg%22 width=%22null%22 height=%22null%22 viewBox=%220 0 639 639%22%3E%3Cpath d=%22m457.61,144c-13,0-25.07,6.74-31.88,17.82l-73.37,108.93c-2.39,3.59-1.42,8.43,2.17,10.82,2.91,1.94,6.76,1.7,9.41-.58l72.22-62.64c1.2-1.08,3.05-.97,4.13.23.49.55.75,1.26.75,1.99v196.12c0,1.62-1.31,2.92-2.93,2.92-.87,0-1.69-.38-2.24-1.05L217.56,157.24c-7.11-8.39-17.55-13.23-28.54-13.24h-7.63c-20.65,0-37.39,16.74-37.39,37.39v276.22c0,20.65,16.74,37.39,37.39,37.39,13,0,25.07-6.74,31.88-17.82l73.37-108.93c2.39-3.59,1.42-8.43-2.17-10.82-2.91-1.94-6.76-1.7-9.41.58l-72.22,62.64c-1.2,1.08-3.05.97-4.13-.23-.49-.55-.75-1.26-.74-1.99v-196.17c0-1.62,1.31-2.92,2.93-2.92.86,0,1.69.38,2.24,1.05l218.28,261.37c7.11,8.39,17.55,13.23,28.54,13.24h7.63c20.65.01,37.4-16.72,37.42-37.37V181.39c0-20.65-16.74-37.39-37.39-37.39Z%22%3E%3C/path%3E%3C/svg%3E" preserveAspectRatio="none" clip-path="url(#satori_cp-id-0)" mask="url(#satori_om-id-0)"/><mask id="satori_om-id-0-0"><rect x="300" y="81" width="0" height="200" fill="#fff"/></mask><mask id="satori_om-id-1"><rect x="227" y="281" width="347" height="38" fill="#fff"/></mask><path fill="black" d="M239.0 311.0L229.0 311.0L229.0 287.7L238.3 287.7Q240.9 287.7 242.6 288.4Q244.3 289.2 245.2 290.5Q246.1 291.9 246.1 293.6L246.1 293.6Q246.1 295.0 245.5 296.0Q245.0 297.1 244.0 297.7Q243.1 298.4 241.9 298.6L241.9 298.6L241.9 298.9Q243.2 298.9 244.4 299.6Q245.5 300.3 246.3 301.6Q247.0 302.8 247.0 304.5L247.0 304.5Q247.0 306.4 246.1 307.8Q245.1 309.3 243.4 310.1Q241.6 311.0 239.0 311.0L239.0 311.0ZM233.9 300.7L233.9 306.9L238.0 306.9Q240.0 306.9 241.0 306.1Q241.9 305.3 241.9 304.0L241.9 304.0Q241.9 303.1 241.4 302.3Q241.0 301.6 240.1 301.2Q239.3 300.7 238.1 300.7L238.1 300.7L233.9 300.7ZM233.9 291.7L233.9 297.4L237.6 297.4Q238.6 297.4 239.4 297.1Q240.2 296.7 240.6 296.0Q241.1 295.4 241.1 294.5L241.1 294.5Q241.1 293.2 240.2 292.4Q239.3 291.7 237.7 291.7L237.7 291.7L233.9 291.7ZM271.6 299.3L271.6 299.3Q271.6 303.1 270.1 305.8Q268.7 308.5 266.2 309.9Q263.7 311.3 260.7 311.3L260.7 311.3Q257.6 311.3 255.1 309.9Q252.6 308.5 251.2 305.8Q249.8 303.1 249.8 299.3L249.8 299.3Q249.8 295.5 251.2 292.8Q252.6 290.2 255.1 288.8Q257.6 287.4 260.7 287.4L260.7 287.4Q263.7 287.4 266.2 288.8Q268.7 290.2 270.1 292.8Q271.6 295.5 271.6 299.3ZM266.6 299.3L266.6 299.3Q266.6 296.8 265.8 295.2Q265.1 293.5 263.8 292.6Q262.4 291.7 260.7 291.7L260.7 291.7Q258.9 291.7 257.5 292.6Q256.2 293.5 255.5 295.2Q254.8 296.8 254.8 299.3L254.8 299.3Q254.8 301.8 255.5 303.5Q256.2 305.2 257.5 306.0Q258.9 306.9 260.7 306.9L260.7 306.9Q262.4 306.9 263.8 306.0Q265.1 305.2 265.8 303.5Q266.6 301.8 266.6 299.3ZM292.5 294.4L287.8 294.4Q287.7 293.0 286.6 292.2Q285.6 291.5 283.8 291.5L283.8 291.5Q282.6 291.5 281.8 291.8Q281.0 292.1 280.5 292.7Q280.1 293.3 280.1 294.1L280.1 294.1Q280.1 294.7 280.4 295.2Q280.7 295.6 281.2 296.0Q281.7 296.3 282.4 296.5Q283.0 296.8 283.8 297.0L283.8 297.0L285.9 297.5Q287.4 297.8 288.7 298.4Q289.9 298.9 290.9 299.8Q291.8 300.6 292.3 301.7Q292.8 302.8 292.9 304.3L292.9 304.3Q292.8 306.4 291.8 308.0Q290.7 309.6 288.7 310.4Q286.7 311.3 283.8 311.3L283.8 311.3Q281 311.3 278.9 310.4Q276.8 309.6 275.7 307.9Q274.5 306.2 274.4 303.6L274.4 303.6L279.2 303.6Q279.3 304.8 279.9 305.6Q280.5 306.4 281.5 306.8Q282.5 307.2 283.8 307.2L283.8 307.2Q285.0 307.2 285.9 306.8Q286.9 306.4 287.4 305.8Q287.9 305.1 287.9 304.3L287.9 304.3Q287.9 303.5 287.4 303.0Q287.0 302.4 286.1 302.1Q285.2 301.7 283.9 301.4L283.9 301.4L281.4 300.7Q278.5 300.0 276.8 298.5Q275.0 297.0 275.1 294.4L275.1 294.4Q275.0 292.3 276.2 290.7Q277.3 289.1 279.3 288.2Q281.3 287.4 283.9 287.4L283.9 287.4Q286.5 287.4 288.4 288.2Q290.3 289.1 291.4 290.7Q292.5 292.3 292.5 294.4L292.5 294.4Z M313.6 311.0L308.8 311.0L302.1 287.7L307.5 287.7L311.4 303.8L311.6 303.8L315.8 287.7L320.4 287.7L324.7 303.9L324.9 303.9L328.7 287.7L334.1 287.7L327.4 311.0L322.6 311.0L318.2 295.7L318.0 295.7L313.6 311.0ZM342.7 311.3L342.7 311.3Q340.0 311.3 338.1 310.2Q336.1 309.1 335.1 307.1Q334.0 305.1 334.0 302.3L334.0 302.3Q334.0 299.6 335.1 297.6Q336.1 295.5 338.0 294.4Q339.9 293.3 342.5 293.3L342.5 293.3Q344.2 293.3 345.7 293.8Q347.2 294.4 348.3 295.5Q349.5 296.6 350.1 298.2Q350.7 299.9 350.7 302.1L350.7 302.1L350.7 303.5L336.0 303.5L336.0 300.5L346.1 300.5Q346.1 299.4 345.7 298.6Q345.2 297.8 344.4 297.3Q343.6 296.9 342.6 296.9L342.6 296.9Q341.5 296.9 340.6 297.4Q339.8 297.9 339.3 298.7Q338.8 299.6 338.8 300.6L338.8 300.6L338.8 303.5Q338.8 304.8 339.3 305.7Q339.8 306.7 340.7 307.2Q341.6 307.7 342.8 307.7L342.8 307.7Q343.6 307.7 344.2 307.5Q344.9 307.2 345.4 306.8Q345.9 306.3 346.1 305.7L346.1 305.7L350.6 306.0Q350.3 307.6 349.2 308.8Q348.2 310.0 346.5 310.6Q344.9 311.3 342.7 311.3ZM358.7 311.0L354.0 311.0L354.0 287.7L358.8 287.7L358.8 296.4L358.9 296.4Q359.3 295.7 359.9 295.0Q360.5 294.3 361.5 293.8Q362.4 293.3 363.9 293.3L363.9 293.3Q365.8 293.3 367.4 294.3Q369.0 295.3 370.0 297.3Q371.0 299.2 371.0 302.2L371.0 302.2Q371.0 305.2 370.0 307.2Q369.1 309.2 367.5 310.2Q365.9 311.2 363.9 311.2L363.9 311.2Q362.5 311.2 361.5 310.8Q360.5 310.3 359.9 309.6Q359.3 308.9 358.9 308.2L358.9 308.2L358.7 308.2L358.7 311.0ZM358.7 302.2L358.7 302.2Q358.7 303.8 359.1 304.9Q359.6 306.1 360.4 306.7Q361.2 307.4 362.4 307.4L362.4 307.4Q363.5 307.4 364.4 306.7Q365.2 306.1 365.6 304.9Q366.0 303.7 366.0 302.2L366.0 302.2Q366.0 300.7 365.6 299.6Q365.2 298.4 364.4 297.8Q363.6 297.1 362.4 297.1L362.4 297.1Q361.2 297.1 360.4 297.7Q359.6 298.4 359.1 299.5Q358.7 300.7 358.7 302.2Z M399.3 311.0L383.6 311.0L383.6 287.7L399.3 287.7L399.3 291.7L388.5 291.7L388.5 297.3L398.5 297.3L398.5 301.3L388.5 301.3L388.5 306.9L399.3 306.9L399.3 311.0ZM407.9 300.9L407.9 300.9L407.9 311.0L403.1 311.0L403.1 293.5L407.7 293.5L407.7 296.6L407.9 296.6Q408.5 295.1 409.9 294.2Q411.2 293.3 413.2 293.3L413.2 293.3Q415.0 293.3 416.3 294.1Q417.7 294.9 418.4 296.3Q419.2 297.8 419.2 299.8L419.2 299.8L419.2 311.0L414.4 311.0L414.4 300.7Q414.4 299.1 413.5 298.2Q412.7 297.3 411.3 297.3L411.3 297.3Q410.3 297.3 409.5 297.7Q408.8 298.1 408.4 298.9Q408.0 299.7 407.9 300.9ZM430.9 317.9L430.9 317.9Q428.5 317.9 426.8 317.2Q425.2 316.6 424.2 315.5Q423.2 314.4 422.9 313.0L422.9 313.0L427.4 312.4Q427.6 312.9 428.0 313.4Q428.5 313.8 429.2 314.1Q429.9 314.4 431.0 314.4L431.0 314.4Q432.6 314.4 433.6 313.6Q434.6 312.8 434.6 311.1L434.6 311.1L434.6 307.9L434.4 307.9Q434.1 308.6 433.5 309.2Q432.8 309.9 431.8 310.3Q430.8 310.7 429.4 310.7L429.4 310.7Q427.5 310.7 425.9 309.8Q424.3 308.9 423.3 307.0Q422.4 305.1 422.4 302.2L422.4 302.2Q422.4 299.2 423.3 297.2Q424.3 295.2 425.9 294.3Q427.5 293.3 429.4 293.3L429.4 293.3Q430.9 293.3 431.9 293.8Q432.9 294.3 433.5 295.0Q434.1 295.7 434.4 296.4L434.4 296.4L434.6 296.4L434.6 293.5L439.4 293.5L439.4 311.1Q439.4 313.3 438.3 314.8Q437.2 316.3 435.3 317.1Q433.4 317.9 430.9 317.9ZM431.0 307.1L431.0 307.1Q432.1 307.1 432.9 306.5Q433.8 305.9 434.2 304.8Q434.6 303.7 434.6 302.2L434.6 302.2Q434.6 300.6 434.2 299.5Q433.8 298.4 433.0 297.7Q432.1 297.1 431.0 297.1L431.0 297.1Q429.8 297.1 429.0 297.8Q428.1 298.4 427.7 299.5Q427.3 300.7 427.3 302.2L427.3 302.2Q427.3 303.7 427.7 304.8Q428.1 305.9 429.0 306.5Q429.8 307.1 431.0 307.1ZM448.1 311.0L443.3 311.0L443.3 293.5L448.1 293.5L448.1 311.0ZM445.7 291.2L445.7 291.2Q444.6 291.2 443.8 290.5Q443.1 289.8 443.1 288.8L443.1 288.8Q443.1 287.8 443.8 287.1Q444.6 286.3 445.7 286.3L445.7 286.3Q446.8 286.3 447.5 287.1Q448.3 287.8 448.3 288.8L448.3 288.8Q448.3 289.8 447.5 290.5Q446.8 291.2 445.7 291.2ZM456.8 300.9L456.8 300.9L456.8 311.0L452.0 311.0L452.0 293.5L456.6 293.5L456.6 296.6L456.8 296.6Q457.4 295.1 458.7 294.2Q460.1 293.3 462.0 293.3L462.0 293.3Q463.9 293.3 465.2 294.1Q466.6 294.9 467.3 296.3Q468.1 297.8 468.1 299.8L468.1 299.8L468.1 311.0L463.2 311.0L463.2 300.7Q463.2 299.1 462.4 298.2Q461.6 297.3 460.1 297.3L460.1 297.3Q459.1 297.3 458.4 297.7Q457.6 298.1 457.2 298.9Q456.8 299.7 456.8 300.9ZM479.8 311.3L479.8 311.3Q477.1 311.3 475.2 310.2Q473.2 309.1 472.2 307.1Q471.2 305.1 471.2 302.3L471.2 302.3Q471.2 299.6 472.2 297.6Q473.2 295.5 475.2 294.4Q477.1 293.3 479.6 293.3L479.6 293.3Q481.4 293.3 482.8 293.8Q484.3 294.4 485.5 295.5Q486.6 296.6 487.2 298.2Q487.8 299.9 487.8 302.1L487.8 302.1L487.8 303.5L473.1 303.5L473.1 300.5L483.3 300.5Q483.3 299.4 482.8 298.6Q482.4 297.8 481.6 297.3Q480.8 296.9 479.7 296.9L479.7 296.9Q478.6 296.9 477.8 297.4Q476.9 297.9 476.4 298.7Q476.0 299.6 475.9 300.6L475.9 300.6L475.9 303.5Q475.9 304.8 476.4 305.7Q476.9 306.7 477.8 307.2Q478.7 307.7 479.9 307.7L479.9 307.7Q480.7 307.7 481.4 307.5Q482.0 307.2 482.5 306.8Q483.0 306.3 483.2 305.7L483.2 305.7L487.7 306.0Q487.4 307.6 486.3 308.8Q485.3 310.0 483.6 310.6Q482.0 311.3 479.8 311.3Z M504.8 311.2L504.8 311.2Q502.9 311.2 501.2 310.2Q499.6 309.2 498.7 307.2Q497.8 305.2 497.8 302.2L497.8 302.2Q497.8 299.2 498.7 297.3Q499.7 295.3 501.3 294.3Q502.9 293.3 504.8 293.3L504.8 293.3Q506.3 293.3 507.3 293.8Q508.3 294.3 508.9 295.0Q509.5 295.7 509.8 296.4L509.8 296.4L509.9 296.4L509.9 287.7L514.8 287.7L514.8 311.0L510 311.0L510 308.2L509.8 308.2Q509.5 308.9 508.8 309.6Q508.2 310.3 507.2 310.8Q506.3 311.2 504.8 311.2ZM506.4 307.4L506.4 307.4Q507.5 307.4 508.4 306.7Q509.2 306.1 509.6 304.9Q510.0 303.8 510.0 302.2L510.0 302.2Q510.0 300.7 509.6 299.5Q509.2 298.4 508.4 297.7Q507.5 297.1 506.4 297.1L506.4 297.1Q505.2 297.1 504.4 297.8Q503.5 298.4 503.1 299.6Q502.7 300.7 502.7 302.2L502.7 302.2Q502.7 303.7 503.1 304.9Q503.6 306.1 504.4 306.7Q505.2 307.4 506.4 307.4ZM526.6 311.3L526.6 311.3Q524.0 311.3 522.1 310.2Q520.1 309.0 519.1 307.0Q518.0 305.0 518.0 302.3L518.0 302.3Q518.0 299.6 519.1 297.6Q520.1 295.5 522.1 294.4Q524.0 293.3 526.6 293.3L526.6 293.3Q529.3 293.3 531.2 294.4Q533.1 295.5 534.2 297.6Q535.2 299.6 535.2 302.3L535.2 302.3Q535.2 305.0 534.2 307.0Q533.1 309.0 531.2 310.2Q529.3 311.3 526.6 311.3ZM526.6 307.5L526.6 307.5Q527.9 307.5 528.7 306.9Q529.5 306.2 529.9 305.0Q530.3 303.8 530.3 302.3L530.3 302.3Q530.3 300.7 529.9 299.5Q529.5 298.3 528.7 297.7Q527.9 297.0 526.6 297.0L526.6 297.0Q525.4 297.0 524.6 297.7Q523.8 298.3 523.4 299.5Q523.0 300.7 523.0 302.3L523.0 302.3Q523.0 303.8 523.4 305.0Q523.8 306.2 524.6 306.9Q525.4 307.5 526.6 307.5ZM546.3 311.3L546.3 311.3Q543.6 311.3 541.7 310.2Q539.7 309.0 538.7 307.0Q537.7 304.9 537.7 302.3L537.7 302.3Q537.7 299.6 538.7 297.6Q539.8 295.6 541.7 294.4Q543.6 293.3 546.2 293.3L546.2 293.3Q548.5 293.3 550.2 294.1Q552.0 294.9 553.0 296.4Q554.0 297.9 554.1 300.0L554.1 300.0L549.5 300.0Q549.3 298.6 548.5 297.8Q547.6 297.0 546.3 297.0L546.3 297.0Q545.2 297.0 544.4 297.7Q543.5 298.3 543.1 299.4Q542.6 300.6 542.6 302.2L542.6 302.2Q542.6 303.9 543.1 305.1Q543.5 306.2 544.4 306.8Q545.2 307.5 546.3 307.5L546.3 307.5Q547.1 307.5 547.8 307.1Q548.5 306.8 548.9 306.1Q549.4 305.5 549.5 304.6L549.5 304.6L554.1 304.6Q553.9 306.6 553.0 308.1Q552 309.6 550.3 310.4Q548.6 311.3 546.3 311.3ZM571.7 298.5L571.7 298.5L567.3 298.7Q567.1 298.2 566.8 297.7Q566.4 297.3 565.8 297.0Q565.2 296.7 564.3 296.7L564.3 296.7Q563.2 296.7 562.4 297.2Q561.7 297.6 561.7 298.4L561.7 298.4Q561.7 299.1 562.2 299.5Q562.7 299.9 563.9 300.2L563.9 300.2L567.0 300.8Q569.6 301.3 570.8 302.5Q572.1 303.7 572.1 305.5L572.1 305.5Q572.1 307.3 571.1 308.6Q570.1 309.8 568.3 310.6Q566.6 311.3 564.3 311.3L564.3 311.3Q560.9 311.3 558.8 309.8Q556.8 308.4 556.4 305.9L556.4 305.9L561.2 305.6Q561.4 306.7 562.2 307.3Q563.0 307.8 564.3 307.8L564.3 307.8Q565.6 307.8 566.4 307.3Q567.2 306.8 567.2 306.0L567.2 306.0Q567.2 305.4 566.6 304.9Q566.1 304.5 564.9 304.3L564.9 304.3L561.9 303.7Q559.4 303.2 558.1 301.9Q556.9 300.7 556.9 298.7L556.9 298.7Q556.9 297.0 557.8 295.8Q558.7 294.6 560.4 293.9Q562.0 293.3 564.3 293.3L564.3 293.3Q567.6 293.3 569.5 294.7Q571.4 296.1 571.7 298.5Z "/></svg>